HIERARCHY
ROOT Junyuan_V1:Solving:Hips
{
	OFFSET 0.000000 0.000000 0.000000
	CHANNELS 6 Xposition Yposition Zposition Xrotation Yrotation Zrotation
	JOINT Junyuan_V1:Solving:Spine
	{
		OFFSET 0.000000 -11.180205 2.228564
		CHANNELS 6 Xposition Yposition Zposition Xrotation Yrotation Zrotation
		JOINT Junyuan_V1:Solving:Spine1
		{
			OFFSET 0.000000 -8.682996 1.531049
			CHANNELS 6 Xposition Yposition Zposition Xrotation Yrotation Zrotation
			JOINT Junyuan_V1:Solving:Spine2
			{
				OFFSET 0.000000 -8.783394 0.768450
				CHANNELS 6 Xposition Yposition Zposition Xrotation Yrotation Zrotation
				JOINT Junyuan_V1:Solving:Spine3
				{
					OFFSET 0.000000 -8.816944 0.000000
					CHANNELS 6 Xposition Yposition Zposition Xrotation Yrotation Zrotation
					JOINT Junyuan_V1:Solving:Neck
					{
						OFFSET 0.000000 -11.336071 -1.133605
						CHANNELS 6 Xposition Yposition Zposition Xrotation Yrotation Zrotation
						JOINT Junyuan_V1:Solving:Neck1
						{
							OFFSET 0.000000 -7.643246 -0.668695
							CHANNELS 6 Xposition Yposition Zposition Xrotation Yrotation Zrotation
							JOINT Junyuan_V1:Solving:Head
							{
								OFFSET 0.000000 -7.555870 -1.332303
								CHANNELS 6 Xposition Yposition Zposition Xrotation Yrotation Zrotation
								JOINT Junyuan_V1:Solving:HeadEnd
								{
									OFFSET 0.000000 -9.728081 0.000002
									CHANNELS 6 Xposition Yposition Zposition Xrotation Yrotation Zrotation
									End Site
									{
										OFFSET 0.000000 -9.728081 0.000002
									}
								}
							}
						}
					}
					JOINT Junyuan_V1:Solving:RightShoulder
					{
						OFFSET 0.000000 -8.097195 -5.270916
						CHANNELS 6 Xposition Yposition Zposition Xrotation Yrotation Zrotation
						JOINT Junyuan_V1:Solving:RightArm
						{
							OFFSET -20.762394 -0.000008 0.000000
							CHANNELS 6 Xposition Yposition Zposition Xrotation Yrotation Zrotation
							JOINT Junyuan_V1:Solving:RightForeArm
							{
								OFFSET -29.048946 -0.000008 0.000000
								CHANNELS 6 Xposition Yposition Zposition Xrotation Yrotation Zrotation
								JOINT Junyuan_V1:Solving:RightHand
								{
									OFFSET -22.031235 -0.000008 0.000000
									CHANNELS 6 Xposition Yposition Zposition Xrotation Yrotation Zrotation
									JOINT Junyuan_V1:Solving:RightHandThumb1
									{
										OFFSET -3.579254 2.890213 -2.661497
										CHANNELS 6 Xposition Yposition Zposition Xrotation Yrotation Zrotation
										End Site
										{
											OFFSET -5.229485 0.000000 -5.277840
										}
									}
									JOINT Junyuan_V1:Solving:RightHandMiddle1
									{
										OFFSET -9.544678 -0.000004 0.061184
										CHANNELS 6 Xposition Yposition Zposition Xrotation Yrotation Zrotation
										End Site
										{
											OFFSET -7.429878 -0.000004 0.000000
										}
									}
								}
							}
						}
					}
					JOINT Junyuan_V1:Solving:LeftShoulder
					{
						OFFSET 0.000000 -8.097195 -5.270916
						CHANNELS 6 Xposition Yposition Zposition Xrotation Yrotation Zrotation
						JOINT Junyuan_V1:Solving:LeftArm
						{
							OFFSET 20.762394 -0.000008 0.000000
							CHANNELS 6 Xposition Yposition Zposition Xrotation Yrotation Zrotation
							JOINT Junyuan_V1:Solving:LeftForeArm
							{
								OFFSET 29.048946 -0.000008 0.000000
								CHANNELS 6 Xposition Yposition Zposition Xrotation Yrotation Zrotation
								JOINT Junyuan_V1:Solving:LeftHand
								{
									OFFSET 22.031235 -0.000008 0.000000
									CHANNELS 6 Xposition Yposition Zposition Xrotation Yrotation Zrotation
									JOINT Junyuan_V1:Solving:LeftHandThumb1
									{
										OFFSET 3.579254 2.890213 -2.661497
										CHANNELS 6 Xposition Yposition Zposition Xrotation Yrotation Zrotation
										End Site
										{
											OFFSET 5.229485 0.000000 -5.277840
										}
									}
									JOINT Junyuan_V1:Solving:LeftHandMiddle1
									{
										OFFSET 9.544678 -0.000004 0.061184
										CHANNELS 6 Xposition Yposition Zposition Xrotation Yrotation Zrotation
										End Site
										{
											OFFSET 7.429878 -0.000004 0.000000
										}
									}
								}
							}
						}
					}
				}
			}
		}
	}
	JOINT Junyuan_V1:Solving:RightUpLeg
	{
		OFFSET -10.825166 0.000000 0.000000
		CHANNELS 6 Xposition Yposition Zposition Xrotation Yrotation Zrotation
		JOINT Junyuan_V1:Solving:RightLeg
		{
			OFFSET 0.000000 43.678444 -0.000006
			CHANNELS 6 Xposition Yposition Zposition Xrotation Yrotation Zrotation
			JOINT Junyuan_V1:Solving:RightFoot
			{
				OFFSET 0.000000 36.488441 -0.000006
				CHANNELS 6 Xposition Yposition Zposition Xrotation Yrotation Zrotation
				JOINT Junyuan_V1:Solving:RightForeFoot
				{
					OFFSET 0.000000 3.967834 -0.000000
					CHANNELS 6 Xposition Yposition Zposition Xrotation Yrotation Zrotation
					JOINT Junyuan_V1:Solving:RightToeBase
					{
						OFFSET 0.000000 0.000000 -15.539299
						CHANNELS 6 Xposition Yposition Zposition Xrotation Yrotation Zrotation
						JOINT Junyuan_V1:Solving:RightToeBaseEnd
						{
							OFFSET 0.000000 0.000000 -3.486985
							CHANNELS 6 Xposition Yposition Zposition Xrotation Yrotation Zrotation
							End Site
							{
								OFFSET 0.000000 -3.486992 0.000000
							}
						}
					}
				}
			}
		}
	}
	JOINT Junyuan_V1:Solving:LeftUpLeg
	{
		OFFSET 10.825166 0.000000 0.000000
		CHANNELS 6 Xposition Yposition Zposition Xrotation Yrotation Zrotation
		JOINT Junyuan_V1:Solving:LeftLeg
		{
			OFFSET 0.000000 43.678444 -0.000006
			CHANNELS 6 Xposition Yposition Zposition Xrotation Yrotation Zrotation
			JOINT Junyuan_V1:Solving:LeftFoot
			{
				OFFSET 0.000000 36.488441 -0.000006
				CHANNELS 6 Xposition Yposition Zposition Xrotation Yrotation Zrotation
				JOINT Junyuan_V1:Solving:LeftForeFoot
				{
					OFFSET 0.000000 3.967834 -0.000000
					CHANNELS 6 Xposition Yposition Zposition Xrotation Yrotation Zrotation
					JOINT Junyuan_V1:Solving:LeftToeBase
					{
						OFFSET 0.000000 0.000000 -15.539299
						CHANNELS 6 Xposition Yposition Zposition Xrotation Yrotation Zrotation
						JOINT Junyuan_V1:Solving:LeftToeBaseEnd
						{
							OFFSET 0.000000 0.000000 -3.974441
							CHANNELS 6 Xposition Yposition Zposition Xrotation Yrotation Zrotation
							End Site
							{
								OFFSET 0.000000 -3.974442 0.000000
							}
						}
					}
				}
			}
		}
	}
}
MOTION
Frames: 4
Frame Time: 0.041667
44.420456 -42.853882 -90.352760 92.199843 -174.608445 0.664381 -0.000003 -11.180194 2.228574 10.462371 -0.082580 0.271369 -0.000001 -8.683012 1.531046 -0.560790 -0.092925 0.279583 -0.000003 -8.783395 0.768455 -0.628546 -1.901431 0.213820 -0.000005 -8.816954 -0.000001 0.106075 0.158582 0.337057 -0.000008 -11.336066 -1.133611 -16.722690 -3.930403 1.666941 -0.000003 -7.643253 -0.668704 3.994824 0.775493 -0.131484 0.000001 -7.555826 -1.332296 12.106329 0.021820 -0.166543 -0.000009 -9.728081 0.000000 0.000000 0.000000 0.000000 -0.000003 -8.097172 -5.270922 -0.000010 18.117551 12.148201 -20.762386 -0.000022 -0.000004 -13.873665 -27.895018 -87.501109 -29.048935 -0.000021 0.000003 -3.759218 -3.248327 -0.213318 -22.031237 -0.000013 -0.000007 0.486324 -1.057031 24.709621 -3.579255 2.890208 -2.661515 0.000005 0.000003 -0.000000 -9.544697 -0.000014 0.061179 -0.000001 0.000003 -0.000004 -0.000003 -8.097168 -5.270926 -0.000011 -19.670337 -12.656614 20.762392 -0.000030 0.000009 -11.838868 31.131579 83.798204 29.048914 -0.000016 0.000004 -10.231177 10.999051 1.972269 22.031229 -0.000009 0.000002 -1.181322 -5.815350 -11.503396 3.579256 2.890216 -2.661487 0.000001 0.000010 -0.000007 9.544697 0.000012 0.061193 -0.000001 0.000000 0.000005 -10.825172 0.000014 0.000008 4.313301 8.196604 -1.359199 -0.000001 43.678448 -0.000010 3.654301 0.000001 0.000000 0.000014 36.488434 -0.000012 3.294792 10.127080 3.271826 0.000009 3.967819 -0.000003 -0.000001 0.000001 -0.000000 0.000001 0.000007 -15.539295 8.275034 0.000001 -0.000000 -0.000005 -0.000008 -3.486974 -0.000001 -0.000001 -0.000000 10.825165 0.000014 0.000018 5.450613 -12.229517 -2.089961 0.000008 43.678452 -0.000019 0.289989 0.000000 -0.000000 0.000006 36.488419 -0.000017 9.444876 1.125698 -3.002239 0.000004 3.967827 0.000008 0.000000 -0.000001 -0.000000 0.000002 -0.000007 -15.539289 -3.364198 -0.000001 -0.000000 0.000000 -0.000007 -3.974436 0.000001 -0.000000 0.000000 
44.423409 -42.721062 -90.361984 92.117375 -174.636927 0.654253 0.000005 -11.180223 2.228562 10.593331 -0.067791 0.228369 0.000002 -8.682993 1.531054 -0.533439 -0.089007 0.269305 -0.000000 -8.783388 0.768443 -0.585411 -1.856042 0.188924 0.000002 -8.816946 -0.000001 0.158248 0.161761 0.312870 0.000001 -11.336070 -1.133578 -16.651086 -3.967336 1.699612 0.000002 -7.643232 -0.668691 4.019729 0.625353 -0.148225 -0.000005 -7.555868 -1.332307 12.150925 0.011446 -0.165861 0.000005 -9.728127 0.000005 -0.000000 -0.000000 -0.000000 -0.000009 -8.097172 -5.270894 -0.000011 17.928647 11.873961 -20.762394 -0.000008 0.000002 -14.253497 -29.387497 -88.933817 -29.048958 -0.000031 0.000001 -2.955989 -3.423292 -0.176663 -22.031258 -0.000012 -0.000007 0.456519 -1.015248 24.214834 -3.579256 2.890205 -2.661493 0.000004 -0.000007 0.000007 -9.544697 0.000000 0.061186 0.000002 -0.000001 -0.000005 -0.000013 -8.097191 -5.270892 -0.000013 -19.402944 -12.412782 20.762386 0.000009 -0.000007 -12.226555 32.009866 85.179788 29.048931 -0.000020 -0.000002 -10.194123 10.869036 1.942051 22.031233 -0.000020 -0.000011 -1.140733 -5.726513 -11.285564 3.579278 2.890208 -2.661489 0.000004 0.000002 0.000002 9.544719 -0.000005 0.061191 0.000002 -0.000005 0.000003 -10.825167 -0.000008 0.000000 4.132808 8.022203 -1.374574 0.000009 43.678452 -0.000003 3.661676 -0.000000 0.000000 0.000005 36.488445 -0.000003 3.386065 10.345193 3.269505 0.000006 3.967827 0.000001 -0.000001 -0.000003 0.000001 -0.000010 0.000006 -15.539307 8.265678 0.000004 0.000000 0.000006 0.000007 -3.486979 -0.000001 -0.000006 0.000000 10.825177 -0.000009 0.000001 5.287404 -11.574203 -2.097976 0.000004 43.678448 0.000007 0.293794 -0.000000 0.000000 -0.000007 36.488403 -0.000008 9.539368 0.487793 -2.866399 -0.000000 3.967827 -0.000008 0.000000 0.000001 -0.000000 0.000007 0.000006 -15.539294 -3.356344 0.000001 0.000001 -0.000003 -0.000007 -3.974445 0.000002 -0.000000 0.000000 
44.424343 -42.597916 -90.373444 92.034770 -174.682908 0.628261 -0.000008 -11.180205 2.228566 10.739081 -0.079904 0.201370 0.000000 -8.682982 1.531043 -0.503830 -0.082601 0.255647 -0.000001 -8.783399 0.768448 -0.540584 -1.797145 0.166906 -0.000003 -8.816936 0.000005 0.199639 0.179087 0.289054 0.000002 -11.336095 -1.133611 -16.587656 -4.005516 1.675558 -0.000007 -7.643216 -0.668702 4.031515 0.491119 -0.119609 -0.000003 -7.555877 -1.332307 12.210373 -0.002079 -0.142416 -0.000007 -9.728058 -0.000002 -0.000001 -0.000000 -0.000000 0.000001 -8.097233 -5.270929 -0.000006 17.792364 11.615034 -20.762394 -0.000036 -0.000008 -14.710071 -31.024225 -90.371708 -29.048958 0.000004 -0.000002 -2.268732 -3.684718 -0.145877 -22.031221 0.000007 -0.000002 0.415876 -0.947389 23.702865 -3.579273 2.890234 -2.661500 0.000001 -0.000003 0.000005 -9.544701 0.000010 0.061195 0.000000 0.000001 -0.000010 0.000002 -8.097233 -5.270929 -0.000006 -19.180759 -12.184104 20.762392 -0.000027 -0.000003 -12.686939 32.842845 86.572293 29.048965 -0.000009 -0.000004 -10.106803 10.853889 1.922430 22.031239 -0.000015 0.000015 -1.113949 -5.685797 -11.103822 3.579257 2.890203 -2.661495 0.000005 -0.000002 -0.000007 9.544677 -0.000009 0.061182 0.000002 0.000002 -0.000001 -10.825174 -0.000010 0.000001 3.939353 8.039542 -1.362883 0.000004 43.678448 -0.000009 3.720043 -0.000001 0.000000 0.000008 36.488445 -0.000007 3.446566 10.379802 3.286754 0.000001 3.967819 0.000000 0.000000 -0.000002 -0.000000 0.000002 -0.000004 -15.539302 8.257427 -0.000001 -0.000001 0.000002 -0.000007 -3.486988 0.000002 -0.000002 0.000001 10.825158 -0.000000 -0.000003 4.950376 -12.071940 -2.133975 0.000001 43.678444 -0.000003 0.589059 -0.000001 0.000000 0.000003 36.488445 -0.000012 9.506791 1.041642 -2.954977 -0.000003 3.967827 -0.000001 0.000000 0.000001 -0.000000 0.000008 -0.000008 -15.539297 -3.402387 0.000001 0.000001 0.000005 -0.000007 -3.974439 0.000001 0.000001 -0.000001 
44.416691 -42.452179 -90.387070 91.912831 -174.718056 0.579004 0.000001 -11.180182 2.228580 10.884600 -0.088250 0.173311 -0.000007 -8.682986 1.531047 -0.467127 -0.076848 0.242777 -0.000004 -8.783406 0.768457 -0.511522 -1.749690 0.144350 -0.000011 -8.816934 -0.000004 0.227404 0.187907 0.268715 0.000005 -11.336082 -1.133598 -16.533019 -4.029363 1.675696 -0.000006 -7.643197 -0.668695 4.057079 0.347101 -0.098544 -0.000004 -7.555830 -1.332302 12.264411 -0.016331 -0.104617 0.000002 -9.728096 0.000006 -0.000001 -0.000000 0.000000 0.000003 -8.097210 -5.270908 -0.000013 17.661746 11.382199 -20.762379 -0.000019 0.000001 -15.228216 -32.546493 -91.783413 -29.048960 -0.000018 -0.000003 -1.425792 -4.047379 -0.100658 -22.031239 -0.000015 -0.000002 0.383032 -0.891304 23.258307 -3.579270 2.890216 -2.661513 0.000006 0.000002 -0.000001 -9.544692 0.000009 0.061172 0.000000 0.000002 0.000001 0.000004 -8.097195 -5.270906 -0.000012 -18.953515 -11.945057 20.762392 -0.000017 0.000005 -13.157319 33.509595 87.945789 29.048925 -0.000012 -0.000002 -9.917019 11.013361 1.912963 22.031221 -0.000013 -0.000010 -1.108077 -5.706307 -11.008087 3.579279 2.890213 -2.661492 0.000007 0.000005 -0.000007 9.544704 -0.000011 0.061189 0.000005 -0.000001 -0.000005 -10.825161 0.000034 0.000026 3.664417 8.164551 -1.318657 0.000007 43.678444 -0.000011 3.833774 -0.000001 0.000000 0.000001 36.488453 -0.000009 3.481323 10.296356 3.313043 -0.000001 3.967827 -0.000000 0.000000 -0.000002 0.000001 0.000002 -0.000005 -15.539289 8.252475 -0.000007 0.000000 0.000003 -0.000007 -3.486984 0.000001 -0.000001 0.000000 10.825174 0.000021 0.000015 4.644903 -12.025509 -2.125970 0.000006 43.678448 -0.000003 0.753696 0.000001 -0.000000 -0.000004 36.488441 -0.000007 9.569449 1.057318 -2.985863 0.000001 3.967834 0.000004 -0.000000 0.000001 -0.000000 0.000004 -0.000007 -15.539298 -3.437723 -0.000000 0.000000 -0.000001 0.000000 -3.974444 0.000001 0.000000 0.000000 
